<svg width="240" height="48" viewBox="0 0 240 48" fill="none" xmlns="http://www.w3.org/2000/svg">
<path d="M2.52841 39V9.90909H8.67898V33.929H21.1506V39H2.52841ZM25.4237 39V9.90909H45.026V14.9801H31.5743V21.9119H44.0175V26.983H31.5743V33.929H45.0828V39H25.4237ZM75.7835 20.0938H69.5619C69.4483 19.2888 69.2163 18.5739 68.8659 17.9489C68.5155 17.3144 68.0657 16.7746 67.5165 16.3295C66.9672 15.8845 66.3328 15.5436 65.6131 15.3068C64.9028 15.0701 64.1311 14.9517 63.2977 14.9517C61.792 14.9517 60.4805 15.3258 59.3631 16.0739C58.2456 16.8125 57.3792 17.892 56.7636 19.3125C56.1481 20.7235 55.8403 22.4375 55.8403 24.4545C55.8403 26.5284 56.1481 28.2708 56.7636 29.6818C57.3886 31.0928 58.2598 32.1581 59.3773 32.8778C60.4947 33.5975 61.7873 33.9574 63.2551 33.9574C64.079 33.9574 64.8413 33.8485 65.542 33.6307C66.2523 33.4129 66.882 33.0956 67.4313 32.679C67.9805 32.2528 68.435 31.7367 68.7949 31.1307C69.1642 30.5246 69.4199 29.8333 69.5619 29.0568L75.7835 29.0852C75.6225 30.4205 75.2201 31.7083 74.5761 32.9489C73.9417 34.1799 73.0847 35.2831 72.0051 36.2585C70.935 37.2244 69.6566 37.9915 68.1699 38.5597C66.6926 39.1184 65.0212 39.3977 63.1557 39.3977C60.561 39.3977 58.2409 38.8106 56.1955 37.6364C54.1595 36.4621 52.5496 34.7623 51.3659 32.5369C50.1917 30.3116 49.6045 27.6174 49.6045 24.4545C49.6045 21.2822 50.2011 18.5833 51.3943 16.358C52.5875 14.1326 54.2068 12.4375 56.2523 11.2727C58.2977 10.0985 60.5989 9.51136 63.1557 9.51136C64.8413 9.51136 66.4038 9.74811 67.8432 10.2216C69.292 10.6951 70.5752 11.3864 71.6926 12.2955C72.81 13.1951 73.7191 14.2983 74.4199 15.6051C75.1301 16.9119 75.5847 18.4081 75.7835 20.0938ZM79.2861 14.9801V9.90909H103.178V14.9801H94.2719V39H88.1923V14.9801H79.2861ZM132.718 24.4545C132.718 27.6269 132.116 30.3258 130.914 32.5511C129.72 34.7765 128.092 36.4763 126.027 37.6506C123.972 38.8153 121.662 39.3977 119.095 39.3977C116.51 39.3977 114.19 38.8106 112.135 37.6364C110.08 36.4621 108.456 34.7623 107.263 32.5369C106.07 30.3116 105.473 27.6174 105.473 24.4545C105.473 21.2822 106.07 18.5833 107.263 16.358C108.456 14.1326 110.08 12.4375 112.135 11.2727C114.19 10.0985 116.51 9.51136 119.095 9.51136C121.662 9.51136 123.972 10.0985 126.027 11.2727C128.092 12.4375 129.72 14.1326 130.914 16.358C132.116 18.5833 132.718 21.2822 132.718 24.4545ZM126.482 24.4545C126.482 22.3996 126.174 20.6667 125.559 19.2557C124.952 17.8447 124.095 16.7746 122.988 16.0455C121.88 15.3163 120.582 14.9517 119.095 14.9517C117.609 14.9517 116.311 15.3163 115.203 16.0455C114.095 16.7746 113.234 17.8447 112.618 19.2557C112.012 20.6667 111.709 22.3996 111.709 24.4545C111.709 26.5095 112.012 28.2424 112.618 29.6534C113.234 31.0644 114.095 32.1345 115.203 32.8636C116.311 33.5928 117.609 33.9574 119.095 33.9574C120.582 33.9574 121.88 33.5928 122.988 32.8636C124.095 32.1345 124.952 31.0644 125.559 29.6534C126.174 28.2424 126.482 26.5095 126.482 24.4545ZM166.221 19.3125C166.022 18.6212 165.743 18.0104 165.383 17.4801C165.023 16.9403 164.583 16.4858 164.062 16.1165C163.551 15.7377 162.964 15.4489 162.301 15.25C161.647 15.0511 160.923 14.9517 160.128 14.9517C158.641 14.9517 157.334 15.321 156.207 16.0597C155.09 16.7983 154.218 17.8731 153.593 19.2841C152.968 20.6856 152.656 22.3996 152.656 24.4261C152.656 26.4527 152.964 28.1761 153.579 29.5966C154.195 31.017 155.066 32.1013 156.193 32.8494C157.32 33.5881 158.65 33.9574 160.184 33.9574C161.576 33.9574 162.765 33.7112 163.75 33.2188C164.744 32.7169 165.502 32.0114 166.022 31.1023C166.553 30.1932 166.818 29.1184 166.818 27.8778L168.068 28.0625H160.568V23.4318H172.741V27.0966C172.741 29.6534 172.201 31.8504 171.122 33.6875C170.042 35.5152 168.556 36.9261 166.662 37.9205C164.768 38.9053 162.599 39.3977 160.156 39.3977C157.429 39.3977 155.033 38.7964 152.968 37.5938C150.904 36.3816 149.294 34.6629 148.139 32.4375C146.993 30.2027 146.42 27.5511 146.42 24.483C146.42 22.125 146.761 20.0227 147.443 18.1761C148.134 16.3201 149.1 14.7481 150.341 13.4602C151.581 12.1723 153.025 11.1922 154.673 10.5199C156.321 9.84754 158.106 9.51136 160.028 9.51136C161.676 9.51136 163.21 9.75284 164.63 10.2358C166.051 10.7093 167.31 11.3816 168.409 12.2528C169.517 13.1241 170.421 14.161 171.122 15.3636C171.823 16.5568 172.272 17.8731 172.471 19.3125H166.221ZM174.685 9.90909H181.574L188.208 22.4375H188.492L195.125 9.90909H202.014L191.404 28.7159V39H185.296V28.7159L174.685 9.90909ZM205.574 9.90909H213.159L221.17 29.4545H221.511L229.523 9.90909H237.108V39H231.142V20.0653H230.9L223.372 38.858H219.31L211.781 19.9943H211.54V39H205.574V9.90909Z" fill="#ADDECE"/>
<path d="M2.52841 39H1.52841V40H2.52841V39ZM2.52841 9.90909V8.90909H1.52841V9.90909H2.52841ZM8.67898 9.90909H9.67898V8.90909H8.67898V9.90909ZM8.67898 33.929H7.67898V34.929H8.67898V33.929ZM21.1506 33.929H22.1506V32.929H21.1506V33.929ZM21.1506 39V40H22.1506V39H21.1506ZM3.52841 39V9.90909H1.52841V39H3.52841ZM2.52841 10.9091H8.67898V8.90909H2.52841V10.9091ZM7.67898 9.90909V33.929H9.67898V9.90909H7.67898ZM8.67898 34.929H21.1506V32.929H8.67898V34.929ZM20.1506 33.929V39H22.1506V33.929H20.1506ZM21.1506 38H2.52841V40H21.1506V38ZM25.4237 39H24.4237V40H25.4237V39ZM25.4237 9.90909V8.90909H24.4237V9.90909H25.4237ZM45.026 9.90909H46.026V8.90909H45.026V9.90909ZM45.026 14.9801V15.9801H46.026V14.9801H45.026ZM31.5743 14.9801V13.9801H30.5743V14.9801H31.5743ZM31.5743 21.9119H30.5743V22.9119H31.5743V21.9119ZM44.0175 21.9119H45.0175V20.9119H44.0175V21.9119ZM44.0175 26.983V27.983H45.0175V26.983H44.0175ZM31.5743 26.983V25.983H30.5743V26.983H31.5743ZM31.5743 33.929H30.5743V34.929H31.5743V33.929ZM45.0828 33.929H46.0828V32.929H45.0828V33.929ZM45.0828 39V40H46.0828V39H45.0828ZM26.4237 39V9.90909H24.4237V39H26.4237ZM25.4237 10.9091H45.026V8.90909H25.4237V10.9091ZM44.026 9.90909V14.9801H46.026V9.90909H44.026ZM45.026 13.9801H31.5743V15.9801H45.026V13.9801ZM30.5743 14.9801V21.9119H32.5743V14.9801H30.5743ZM31.5743 22.9119H44.0175V20.9119H31.5743V22.9119ZM43.0175 21.9119V26.983H45.0175V21.9119H43.0175ZM44.0175 25.983H31.5743V27.983H44.0175V25.983ZM30.5743 26.983V33.929H32.5743V26.983H30.5743ZM31.5743 34.929H45.0828V32.929H31.5743V34.929ZM44.0828 33.929V39H46.0828V33.929H44.0828ZM45.0828 38H25.4237V40H45.0828V38ZM75.7835 20.0938V21.0938H76.9084L76.7766 19.9766L75.7835 20.0938ZM69.5619 20.0938L68.5718 20.2335L68.6932 21.0938H69.5619V20.0938ZM68.8659 17.9489L67.9905 18.4323L67.9936 18.4379L68.8659 17.9489ZM67.5165 16.3295L66.8869 17.1065L66.8869 17.1065L67.5165 16.3295ZM65.6131 15.3068L65.2968 16.2555L65.3006 16.2567L65.6131 15.3068ZM59.3631 16.0739L59.9145 16.9081L59.9194 16.9048L59.3631 16.0739ZM56.7636 19.3125L57.6802 19.7124L57.6812 19.7101L56.7636 19.3125ZM56.7636 29.6818L55.847 30.0817L55.8493 30.0868L56.7636 29.6818ZM59.3773 32.8778L58.8358 33.7186L58.8358 33.7186L59.3773 32.8778ZM65.542 33.6307L65.2489 32.6746L65.2452 32.6757L65.542 33.6307ZM67.4313 32.679L68.0357 33.4757L68.0442 33.4691L67.4313 32.679ZM68.7949 31.1307L67.9409 30.6103L67.935 30.6201L68.7949 31.1307ZM69.5619 29.0568L69.5665 28.0568L68.729 28.053L68.5783 28.8769L69.5619 29.0568ZM75.7835 29.0852L76.7763 29.2049L76.9107 28.0904L75.7881 28.0852L75.7835 29.0852ZM74.5761 32.9489L73.6886 32.4881L73.6872 32.4907L74.5761 32.9489ZM72.0051 36.2585L72.6752 37.0008L72.6755 37.0005L72.0051 36.2585ZM68.1699 38.5597L68.5236 39.495L68.5269 39.4938L68.1699 38.5597ZM56.1955 37.6364L55.6958 38.5026L55.6976 38.5036L56.1955 37.6364ZM51.3659 32.5369L50.4815 33.0036L50.483 33.0065L51.3659 32.5369ZM51.3943 16.358L52.2756 16.8305L52.2756 16.8305L51.3943 16.358ZM56.2523 11.2727L56.7471 12.1417L56.7501 12.14L56.2523 11.2727ZM67.8432 10.2216L67.5307 11.1715L67.5326 11.1721L67.8432 10.2216ZM71.6926 12.2955L71.0615 13.0712L71.0655 13.0744L71.6926 12.2955ZM74.4199 15.6051L73.5386 16.0777L73.5413 16.0826L74.4199 15.6051ZM75.7835 19.0938H69.5619V21.0938H75.7835V19.0938ZM70.5521 19.954C70.4235 19.0427 70.1568 18.2065 69.7382 17.4599L67.9936 18.4379C68.2758 18.9412 68.4731 19.5349 68.5718 20.2335L70.5521 19.954ZM69.7413 17.4654C69.3303 16.7211 68.7979 16.0808 68.1461 15.5526L66.8869 17.1065C67.3335 17.4684 67.7008 17.9077 67.9905 18.4323L69.7413 17.4654ZM68.1461 15.5526C67.4959 15.0258 66.7522 14.6288 65.9255 14.3569L65.3006 16.2567C65.9133 16.4583 66.4386 16.7432 66.8869 17.1065L68.1461 15.5526ZM65.9293 14.3581C65.1063 14.0838 64.2265 13.9517 63.2977 13.9517V15.9517C64.0356 15.9517 64.6994 16.0564 65.2968 16.2555L65.9293 14.3581ZM63.2977 13.9517C61.6185 13.9517 60.1081 14.3717 58.8067 15.2429L59.9194 16.9048C60.8529 16.2798 61.9656 15.9517 63.2977 15.9517V13.9517ZM58.8116 15.2396C57.5084 16.1011 56.5264 17.3449 55.8461 18.9149L57.6812 19.7101C58.2319 18.4392 58.9829 17.5239 59.9145 16.9081L58.8116 15.2396ZM55.8471 18.9126C55.1623 20.4824 54.8403 22.3406 54.8403 24.4545H56.8403C56.8403 22.5344 57.1339 20.9646 57.6802 19.7124L55.8471 18.9126ZM54.8403 24.4545C54.8403 26.6209 55.161 28.5089 55.8471 30.0817L57.6802 29.282C57.1353 28.0328 56.8403 26.4359 56.8403 24.4545H54.8403ZM55.8493 30.0868C56.5404 31.6469 57.5291 32.877 58.8358 33.7186L59.9188 32.0371C58.9906 31.4393 58.2369 30.5387 57.678 29.2768L55.8493 30.0868ZM58.8358 33.7186C60.1313 34.5529 61.616 34.9574 63.2551 34.9574V32.9574C61.9586 32.9574 60.8581 32.6421 59.9188 32.0371L58.8358 33.7186ZM63.2551 34.9574C64.1674 34.9574 65.031 34.8367 65.8389 34.5856L65.2452 32.6757C64.6516 32.8603 63.9905 32.9574 63.2551 32.9574V34.9574ZM65.8352 34.5867C66.649 34.3372 67.3858 33.9686 68.0356 33.4757L66.8269 31.8823C66.3782 32.2226 65.8555 32.4886 65.2489 32.6746L65.8352 34.5867ZM68.0442 33.4691C68.694 32.965 69.2318 32.3536 69.6547 31.6412L67.935 30.6201C67.6383 31.1199 67.267 31.5407 66.8183 31.8889L68.0442 33.4691ZM69.6488 31.6511C70.0886 30.9293 70.384 30.1203 70.5456 29.2368L68.5783 28.8769C68.4558 29.5464 68.2398 30.1199 67.9409 30.6103L69.6488 31.6511ZM69.5574 30.0568L75.779 30.0852L75.7881 28.0852L69.5665 28.0568L69.5574 30.0568ZM74.7907 28.9655C74.6446 30.177 74.2795 31.3498 73.6886 32.4882L75.4637 33.4096C76.1607 32.0668 76.6004 30.6639 76.7763 29.2049L74.7907 28.9655ZM73.6872 32.4907C73.1107 33.6095 72.3295 34.6177 71.3347 35.5165L72.6755 37.0005C73.8398 35.9486 74.7727 34.7504 75.465 33.407L73.6872 32.4907ZM71.3351 35.5162C70.3657 36.3912 69.1963 37.0968 67.8129 37.6255L68.5269 39.4938C70.1169 38.8861 71.5044 38.0576 72.6752 37.0008L71.3351 35.5162ZM67.8161 37.6243C66.4704 38.1333 64.9218 38.3977 63.1557 38.3977V40.3977C65.1206 40.3977 66.9149 40.1034 68.5236 39.495L67.8161 37.6243ZM63.1557 38.3977C60.7177 38.3977 58.5724 37.8478 56.6933 36.7691L55.6976 38.5036C57.9094 39.7734 60.4042 40.3977 63.1557 40.3977V38.3977ZM56.6951 36.7701C54.8333 35.6964 53.3511 34.1397 52.2488 32.0673L50.483 33.0065C51.7482 35.385 53.4856 37.2279 55.6959 38.5026L56.6951 36.7701ZM52.2503 32.0703C51.169 30.021 50.6045 27.4957 50.6045 24.4545H48.6045C48.6045 27.7391 49.2143 30.6021 50.4815 33.0036L52.2503 32.0703ZM50.6045 24.4545C50.6045 21.4056 51.1778 18.878 52.2756 16.8305L50.513 15.8854C49.2244 18.2887 48.6045 21.1587 48.6045 24.4545H50.6045ZM52.2756 16.8305C53.3866 14.7584 54.8772 13.2065 56.7471 12.1417L55.7574 10.4037C53.5364 11.6685 51.7884 13.5067 50.513 15.8854L52.2756 16.8305ZM56.7501 12.14C58.6315 11.06 60.7584 10.5114 63.1557 10.5114V8.51136C60.4393 8.51136 57.964 9.13701 55.7544 10.4055L56.7501 12.14ZM63.1557 10.5114C64.747 10.5114 66.2028 10.7347 67.5307 11.1715L68.1557 9.27166C66.6048 8.76151 64.9356 8.51136 63.1557 8.51136V10.5114ZM67.5326 11.1721C68.8716 11.6097 70.0447 12.2439 71.0615 13.0712L72.3237 11.5197C71.1057 10.5288 69.7125 9.78042 68.1538 9.27106L67.5326 11.1721ZM71.0655 13.0744C72.075 13.8871 72.899 14.8849 73.5386 16.0777L75.3012 15.1325C74.5393 13.7117 73.5451 12.503 72.3197 11.5165L71.0655 13.0744ZM73.5413 16.0826C74.1828 17.2631 74.6044 18.6339 74.7904 20.2109L76.7766 19.9766C76.565 18.1824 76.0774 16.5608 75.2985 15.1276L73.5413 16.0826ZM79.2861 14.9801H78.2861V15.9801H79.2861V14.9801ZM79.2861 9.90909V8.90909H78.2861V9.90909H79.2861ZM103.178 9.90909H104.178V8.90909H103.178V9.90909ZM103.178 14.9801V15.9801H104.178V14.9801H103.178ZM94.2719 14.9801V13.9801H93.2719V14.9801H94.2719ZM94.2719 39V40H95.2719V39H94.2719ZM88.1923 39H87.1923V40H88.1923V39ZM88.1923 14.9801H89.1923V13.9801H88.1923V14.9801ZM80.2861 14.9801V9.90909H78.2861V14.9801H80.2861ZM79.2861 10.9091H103.178V8.90909H79.2861V10.9091ZM102.178 9.90909V14.9801H104.178V9.90909H102.178ZM103.178 13.9801H94.2719V15.9801H103.178V13.9801ZM93.2719 14.9801V39H95.2719V14.9801H93.2719ZM94.2719 38H88.1923V40H94.2719V38ZM89.1923 39V14.9801H87.1923V39H89.1923ZM88.1923 13.9801H79.2861V15.9801H88.1923V13.9801ZM130.914 32.5511L130.034 32.0757L130.032 32.0786L130.914 32.5511ZM126.027 37.6506L126.52 38.5205L126.522 38.5198L126.027 37.6506ZM112.135 37.6364L112.631 36.7681L112.631 36.7681L112.135 37.6364ZM107.263 32.5369L106.382 33.0095L106.382 33.0095L107.263 32.5369ZM107.263 16.358L108.144 16.8305L108.144 16.8305L107.263 16.358ZM112.135 11.2727L112.628 12.1427L112.631 12.141L112.135 11.2727ZM126.027 11.2727L125.531 12.141L125.536 12.1437L126.027 11.2727ZM130.914 16.358L130.032 16.8305L130.034 16.8334L130.914 16.358ZM125.559 19.2557L124.64 19.6504L124.642 19.6555L125.559 19.2557ZM122.988 16.0455L122.438 16.8808L122.438 16.8808L122.988 16.0455ZM115.203 16.0455L115.753 16.8808L115.753 16.8808L115.203 16.0455ZM112.618 19.2557L111.702 18.8558L111.699 18.861L112.618 19.2557ZM112.618 29.6534L111.699 30.0481L111.702 30.0533L112.618 29.6534ZM115.203 32.8636L115.753 32.0283L115.753 32.0283L115.203 32.8636ZM122.988 32.8636L122.438 32.0283L122.438 32.0283L122.988 32.8636ZM125.559 29.6534L124.642 29.2536L124.64 29.2587L125.559 29.6534ZM131.718 24.4545C131.718 27.5023 131.14 30.0289 130.034 32.0757L131.793 33.0266C133.093 30.6226 133.718 27.7515 133.718 24.4545H131.718ZM130.032 32.0786C128.922 34.1489 127.423 35.7062 125.533 36.7813L126.522 38.5198C128.76 37.2464 130.519 35.4041 131.795 33.0237L130.032 32.0786ZM125.534 36.7806C123.642 37.8529 121.504 38.3977 119.095 38.3977V40.3977C121.819 40.3977 124.302 39.7778 126.52 38.5205L125.534 36.7806ZM119.095 38.3977C116.668 38.3977 114.521 37.8482 112.631 36.7681L111.639 38.5046C113.859 39.773 116.353 40.3977 119.095 40.3977V38.3977ZM112.631 36.7681C110.75 35.6933 109.255 34.1359 108.144 32.0644L106.382 33.0095C107.657 35.3887 109.41 37.2309 111.639 38.5046L112.631 36.7681ZM108.144 32.0644C107.046 30.0165 106.473 27.4934 106.473 24.4545H104.473C104.473 27.7414 105.093 30.6066 106.382 33.0095L108.144 32.0644ZM106.473 24.4545C106.473 21.4056 107.047 18.878 108.144 16.8305L106.382 15.8854C105.093 18.2887 104.473 21.1587 104.473 24.4545H106.473ZM108.144 16.8305C109.255 14.7596 110.749 13.2078 112.628 12.1427L111.642 10.4028C109.411 11.6672 107.658 13.5056 106.382 15.8854L108.144 16.8305ZM112.631 12.141C114.521 11.0609 116.668 10.5114 119.095 10.5114V8.51136C116.353 8.51136 113.859 9.13606 111.639 10.4045L112.631 12.141ZM119.095 10.5114C121.503 10.5114 123.64 11.0603 125.531 12.141L126.523 10.4045C124.305 9.1367 121.821 8.51136 119.095 8.51136V10.5114ZM125.536 12.1437C127.424 13.2091 128.923 14.7608 130.032 16.8305L131.795 15.8854C130.518 13.5044 128.759 11.6659 126.519 10.4018L125.536 12.1437ZM130.034 16.8334C131.14 18.8802 131.718 21.4068 131.718 24.4545H133.718C133.718 21.1576 133.093 18.2865 131.793 15.8825L130.034 16.8334ZM127.482 24.4545C127.482 22.3057 127.161 20.4276 126.475 18.8558L124.642 19.6555C125.187 20.9057 125.482 22.4936 125.482 24.4545H127.482ZM126.477 18.861C125.807 17.2993 124.833 16.0631 123.537 15.2101L122.438 16.8808C123.358 17.4862 124.098 18.3901 124.64 19.6503L126.477 18.861ZM123.537 15.2101C122.247 14.3608 120.753 13.9517 119.095 13.9517V15.9517C120.411 15.9517 121.512 16.2717 122.438 16.8808L123.537 15.2101ZM119.095 13.9517C117.438 13.9517 115.944 14.3608 114.654 15.2101L115.753 16.8808C116.679 16.2717 117.78 15.9517 119.095 15.9517V13.9517ZM114.654 15.2101C113.359 16.0621 112.382 17.2964 111.702 18.8558L113.535 19.6555C114.086 18.393 114.832 17.4872 115.753 16.8808L114.654 15.2101ZM111.699 18.861C111.025 20.4312 110.709 22.3073 110.709 24.4545H112.709C112.709 22.4919 112.999 20.9021 113.537 19.6503L111.699 18.861ZM110.709 24.4545C110.709 26.6018 111.025 28.4779 111.699 30.0481L113.537 29.2587C112.999 28.0069 112.709 26.4172 112.709 24.4545H110.709ZM111.702 30.0533C112.382 31.6127 113.359 32.847 114.654 33.699L115.753 32.0283C114.832 31.4219 114.086 30.5161 113.535 29.2536L111.702 30.0533ZM114.654 33.699C115.944 34.5482 117.438 34.9574 119.095 34.9574V32.9574C117.78 32.9574 116.679 32.6374 115.753 32.0283L114.654 33.699ZM119.095 34.9574C120.753 34.9574 122.247 34.5482 123.537 33.699L122.438 32.0283C121.512 32.6374 120.411 32.9574 119.095 32.9574V34.9574ZM123.537 33.699C124.833 32.846 125.807 31.6098 126.477 30.0481L124.64 29.2587C124.098 30.519 123.358 31.4229 122.438 32.0283L123.537 33.699ZM126.475 30.0533C127.161 28.4815 127.482 26.6034 127.482 24.4545H125.482C125.482 26.4155 125.187 28.0034 124.642 29.2536L126.475 30.0533ZM166.221 19.3125L165.26 19.589L165.468 20.3125H166.221V19.3125ZM165.383 17.4801L164.551 18.0348L164.556 18.0416L165.383 17.4801ZM164.062 16.1165L163.467 16.92L163.475 16.9262L163.484 16.9322L164.062 16.1165ZM162.301 15.25L162.01 16.2067L162.014 16.2078L162.301 15.25ZM156.207 16.0597L155.659 15.2233L155.656 15.2254L156.207 16.0597ZM153.593 19.2841L154.507 19.6914L154.508 19.6891L153.593 19.2841ZM156.193 32.8494L155.64 33.6826L155.645 33.6858L156.193 32.8494ZM163.75 33.2188L164.197 34.1132L164.2 34.1115L163.75 33.2188ZM166.022 31.1023L165.159 30.5984L165.155 30.6052L166.022 31.1023ZM166.818 27.8778L166.964 26.8886L165.818 26.7193V27.8778H166.818ZM168.068 28.0625V29.0625L168.214 27.0732L168.068 28.0625ZM160.568 28.0625H159.568V29.0625H160.568V28.0625ZM160.568 23.4318V22.4318H159.568V23.4318H160.568ZM172.741 23.4318H173.741V22.4318H172.741V23.4318ZM171.122 33.6875L171.983 34.1961L171.984 34.1941L171.122 33.6875ZM166.662 37.9205L167.123 38.8077L167.126 38.8059L166.662 37.9205ZM152.968 37.5938L152.462 38.4561L152.465 38.4578L152.968 37.5938ZM148.139 32.4375L147.249 32.8937L147.251 32.8983L148.139 32.4375ZM147.443 18.1761L146.506 17.8271L146.505 17.8298L147.443 18.1761ZM150.341 13.4602L151.061 14.154L151.061 14.154L150.341 13.4602ZM154.673 10.5199L154.295 9.594L154.295 9.594L154.673 10.5199ZM164.63 10.2358L164.308 11.1826L164.314 11.1845L164.63 10.2358ZM168.409 12.2528L167.787 13.0363L167.791 13.0389L168.409 12.2528ZM171.122 15.3636L170.258 15.8671L170.26 15.8701L171.122 15.3636ZM172.471 19.3125V20.3125H173.619L173.462 19.1756L172.471 19.3125ZM167.182 19.036C166.958 18.2556 166.637 17.5463 166.211 16.9186L164.556 18.0416C164.85 18.4746 165.087 18.9869 165.26 19.589L167.182 19.036ZM166.215 16.9254C165.789 16.2855 165.263 15.742 164.641 15.3007L163.484 16.9322C163.903 17.2296 164.258 17.5952 164.551 18.0348L166.215 16.9254ZM164.657 15.3129C164.045 14.8595 163.352 14.5214 162.588 14.2922L162.014 16.2078C162.575 16.3764 163.056 16.6159 163.467 16.92L164.657 15.3129ZM162.592 14.2933C161.83 14.0615 161.006 13.9517 160.128 13.9517V15.9517C160.84 15.9517 161.465 16.0408 162.01 16.2067L162.592 14.2933ZM160.128 13.9517C158.467 13.9517 156.965 14.367 155.659 15.2233L156.755 16.896C157.703 16.2751 158.815 15.9517 160.128 15.9517V13.9517ZM155.656 15.2254C154.356 16.0848 153.37 17.3205 152.679 18.8791L154.508 19.6891C155.067 18.4257 155.824 17.5118 156.759 16.8939L155.656 15.2254ZM152.68 18.8768C151.983 20.4406 151.656 22.3021 151.656 24.4261H153.656C153.656 22.4971 153.954 20.9306 154.507 19.6914L152.68 18.8768ZM151.656 24.4261C151.656 26.5491 151.978 28.4159 152.662 29.9942L154.497 29.199C153.95 27.9364 153.656 26.3562 153.656 24.4261H151.656ZM152.662 29.9942C153.343 31.5657 154.33 32.8127 155.64 33.6826L156.746 32.0163C155.802 31.3899 155.047 30.4684 154.497 29.199L152.662 29.9942ZM155.645 33.6858C156.956 34.5455 158.483 34.9574 160.184 34.9574V32.9574C158.817 32.9574 157.683 32.6307 156.741 32.0131L155.645 33.6858ZM160.184 34.9574C161.692 34.9574 163.041 34.6909 164.197 34.1132L163.302 32.3243C162.488 32.7314 161.461 32.9574 160.184 32.9574V34.9574ZM164.2 34.1115C165.358 33.5272 166.266 32.6892 166.89 31.5994L165.155 30.6052C164.737 31.3335 164.13 31.9065 163.299 32.326L164.2 34.1115ZM166.886 31.6061C167.521 30.5188 167.818 29.2635 167.818 27.8778H165.818C165.818 28.9732 165.585 29.8676 165.159 30.5984L166.886 31.6061ZM166.672 28.8671L167.922 29.0518L168.214 27.0732L166.964 26.8886L166.672 28.8671ZM168.068 27.0625H160.568V29.0625H168.068V27.0625ZM161.568 28.0625V23.4318H159.568V28.0625H161.568ZM160.568 24.4318H172.741V22.4318H160.568V24.4318ZM171.741 23.4318V27.0966H173.741V23.4318H171.741ZM171.741 27.0966C171.741 29.511 171.232 31.5254 170.26 33.1809L171.984 34.1941C173.17 32.1753 173.741 29.7958 173.741 27.0966H171.741ZM170.261 33.1789C169.277 34.8453 167.928 36.1264 166.197 37.0351L167.126 38.8059C169.184 37.7259 170.808 36.185 171.983 34.1961L170.261 33.1789ZM166.2 37.0332C164.468 37.9339 162.462 38.3977 160.156 38.3977V40.3977C162.736 40.3977 165.067 39.8767 167.123 38.8077L166.2 37.0332ZM160.156 38.3977C157.58 38.3977 155.363 37.8313 153.472 36.7297L152.465 38.4578C154.703 39.7615 157.277 40.3977 160.156 40.3977V38.3977ZM153.475 36.7314C151.581 35.6192 150.099 34.0434 149.026 31.9767L147.251 32.8983C148.489 35.2824 150.228 37.144 152.462 38.4561L153.475 36.7314ZM149.029 31.9813C147.97 29.9155 147.42 27.4271 147.42 24.483H145.42C145.42 27.6751 146.017 30.4898 147.249 32.8937L149.029 31.9813ZM147.42 24.483C147.42 22.2204 147.747 20.2387 148.381 18.5225L146.505 17.8298C145.775 19.8068 145.42 22.0296 145.42 24.483H147.42ZM148.38 18.5252C149.029 16.7838 149.925 15.3329 151.061 14.154L149.62 12.7665C148.275 14.1633 147.24 15.8564 146.506 17.8271L148.38 18.5252ZM151.061 14.154C152.205 12.966 153.533 12.0652 155.051 11.4458L154.295 9.594C152.518 10.3193 150.957 11.3787 149.62 12.7665L151.061 14.154ZM155.051 11.4458C156.569 10.8262 158.225 10.5114 160.028 10.5114V8.51136C157.987 8.51136 156.072 8.8689 154.295 9.594L155.051 11.4458ZM160.028 10.5114C161.577 10.5114 163.001 10.7381 164.308 11.1826L164.952 9.28902C163.419 8.76753 161.775 8.51136 160.028 8.51136V10.5114ZM164.314 11.1845C165.632 11.6236 166.786 12.2423 167.787 13.0363L169.03 11.4693C167.834 10.5209 166.47 9.79493 164.947 9.28711L164.314 11.1845ZM167.791 13.0389C168.801 13.8333 169.621 14.7747 170.258 15.8671L171.986 14.8602C171.221 13.5473 170.233 12.4148 169.027 11.4668L167.791 13.0389ZM170.26 15.8701C170.89 16.9441 171.299 18.1338 171.481 19.4494L173.462 19.1756C173.246 17.6125 172.755 16.1696 171.984 14.8572L170.26 15.8701ZM172.471 18.3125H166.221V20.3125H172.471V18.3125ZM174.685 9.90909V8.90909H172.972L173.814 10.4005L174.685 9.90909ZM181.574 9.90909L182.458 9.44116L182.176 8.90909H181.574V9.90909ZM188.208 22.4375L187.324 22.9054L187.605 23.4375H188.208V22.4375ZM188.492 22.4375V23.4375H189.094L189.375 22.9054L188.492 22.4375ZM195.125 9.90909V8.90909H194.523L194.241 9.44116L195.125 9.90909ZM202.014 9.90909L202.885 10.4005L203.727 8.90909H202.014V9.90909ZM191.404 28.7159L190.533 28.2245L190.404 28.4533V28.7159H191.404ZM191.404 39V40H192.404V39H191.404ZM185.296 39H184.296V40H185.296V39ZM185.296 28.7159H186.296V28.4533L186.167 28.2245L185.296 28.7159ZM174.685 10.9091H181.574V8.90909H174.685V10.9091ZM180.69 10.377L187.324 22.9054L189.091 21.9696L182.458 9.44116L180.69 10.377ZM188.208 23.4375H188.492V21.4375H188.208V23.4375ZM189.375 22.9054L196.009 10.377L194.241 9.44116L187.608 21.9696L189.375 22.9054ZM195.125 10.9091H202.014V8.90909H195.125V10.9091ZM201.143 9.4177L190.533 28.2245L192.274 29.2073L202.885 10.4005L201.143 9.4177ZM190.404 28.7159V39H192.404V28.7159H190.404ZM191.404 38H185.296V40H191.404V38ZM186.296 39V28.7159H184.296V39H186.296ZM186.167 28.2245L175.556 9.4177L173.814 10.4005L184.425 29.2073L186.167 28.2245ZM205.574 9.90909V8.90909H204.574V9.90909H205.574ZM213.159 9.90909L214.084 9.52983L213.83 8.90909H213.159V9.90909ZM221.17 29.4545L220.245 29.8338L220.499 30.4545H221.17V29.4545ZM221.511 29.4545V30.4545H222.182L222.437 29.8338L221.511 29.4545ZM229.523 9.90909V8.90909H228.852L228.597 9.52983L229.523 9.90909ZM237.108 9.90909H238.108V8.90909H237.108V9.90909ZM237.108 39V40H238.108V39H237.108ZM231.142 39H230.142V40H231.142V39ZM231.142 20.0653H232.142V19.0653H231.142V20.0653ZM230.9 20.0653V19.0653H230.224L229.972 19.6935L230.9 20.0653ZM223.372 38.858V39.858H224.049L224.3 39.2298L223.372 38.858ZM219.31 38.858L218.381 39.2286L218.632 39.858H219.31V38.858ZM211.781 19.9943L212.71 19.6237L212.459 18.9943H211.781V19.9943ZM211.54 19.9943V18.9943H210.54V19.9943H211.54ZM211.54 39V40H212.54V39H211.54ZM205.574 39H204.574V40H205.574V39ZM205.574 10.9091H213.159V8.90909H205.574V10.9091ZM212.234 10.2884L220.245 29.8338L222.096 29.0753L214.084 9.52983L212.234 10.2884ZM221.17 30.4545H221.511V28.4545H221.17V30.4545ZM222.437 29.8338L230.448 10.2884L228.597 9.52983L220.586 29.0753L222.437 29.8338ZM229.523 10.9091H237.108V8.90909H229.523V10.9091ZM236.108 9.90909V39H238.108V9.90909H236.108ZM237.108 38H231.142V40H237.108V38ZM232.142 39V20.0653H230.142V39H232.142ZM231.142 19.0653H230.9V21.0653H231.142V19.0653ZM229.972 19.6935L222.444 38.4861L224.3 39.2298L231.829 20.4372L229.972 19.6935ZM223.372 37.858H219.31V39.858H223.372V37.858ZM220.238 38.4873L212.71 19.6237L210.852 20.365L218.381 39.2286L220.238 38.4873ZM211.781 18.9943H211.54V20.9943H211.781V18.9943ZM210.54 19.9943V39H212.54V19.9943H210.54ZM211.54 38H205.574V40H211.54V38ZM206.574 39V9.90909H204.574V39H206.574Z" fill="white"/>
</svg>
